<svg width="24" height="24" fill="none" xmlns="http://www.w3.org/2000/svg"><path d="M8.571 17.136v-6.857a.857.857 0 0 1 1.715 0v6.857a.857.857 0 0 1-1.715 0ZM15.429 17.136v-6.857a.857.857 0 1 0-1.715 0v6.857a.857.857 0 0 0 1.715 0Z" fill="#FFF"/><path fill-rule="evenodd" clip-rule="evenodd" d="M9.428.85a2.571 2.571 0 0 0-2.57 2.571v.858h-6a.857.857 0 1 0 0 1.714h2.57v14.571A2.571 2.571 0 0 0 6 23.136h12a2.57 2.57 0 0 0 2.572-2.572V5.993h2.57a.857.857 0 0 0 0-1.714h-6V3.42A2.571 2.571 0 0 0 14.573.85H9.427Zm9.43 5.143v14.571a.857.857 0 0 1-.858.857H6a.857.857 0 0 1-.857-.857V5.993h13.714Zm-3.43-1.714V3.42a.857.857 0 0 0-.857-.857H9.428a.857.857 0 0 0-.857.857v.858h6.857Z" fill="#FFF"/></svg>
